# xmcd
#
# Track frame offsets: 
#        150
#        22010
#        41027
#        59692
#        75266
#        93476
#        122048
#        139284
#        156305
#        174611
#        193123
#        205264
#        225223
#        241519
#        257560
#
# Disc length: 3726 seconds
#
# Revision: 0
# Processed by: cddbd v1.5.2PL0 Copyright (c) Steve Scherf et al.
# Submitted via: ExactAudioCopy v1.0b3
#
DISCID=c60e8c0f
DTITLE=Sweet Papa Dave - Evil Gonna Getcha
DYEAR=2010
DGENRE=Blues
TTITLE0=Day to Day
TTITLE1=I'm Getting Old
TTITLE2=It's A Rainy Day
TTITLE3=Evil Gonna Getcha
TTITLE4=Pink Shoes
TTITLE5=If You Should Lose Me
TTITLE6=I Ain't Your Dog
TTITLE7=Playing With Patsy
TTITLE8=Hate No More
TTITLE9=Morning Coffee Blues
TTITLE10=Steppin' Stone
TTITLE11=If I Come To Virginia
TTITLE12=Jozy LaDue
TTITLE13=My Friend Rolo
TTITLE14=Wine, Reefer and Beer
EXTD=
EXTT0=
EXTT1=
EXTT2=
EXTT3=
EXTT4=
EXTT5=
EXTT6=
EXTT7=
EXTT8=
EXTT9=
EXTT10=
EXTT11=
EXTT12=
EXTT13=
EXTT14=
PLAYORDER=
